<svg id="Layer_1" data-name="Layer 1" xmlns="http://www.w3.org/2000/svg" viewBox="0 0 27.42 27.42"><defs><style>.cls-1{fill:#3700b3;}</style></defs><path class="cls-1" d="M22.55,6.18a1.61,1.61,0,1,0,1.61,1.61A1.61,1.61,0,0,0,22.55,6.18Z" transform="translate(-1.58 -1.29)"/><path class="cls-1" d="M15.4,8.25A6.75,6.75,0,1,0,22.15,15,6.76,6.76,0,0,0,15.4,8.25Zm0,11.08A4.33,4.33,0,1,1,19.73,15,4.33,4.33,0,0,1,15.4,19.33Z" transform="translate(-1.58 -1.29)"/><path class="cls-1" d="M20.76,28.71h-11a8.24,8.24,0,0,1-8.23-8.24V9.53A8.24,8.24,0,0,1,9.81,1.29h11A8.25,8.25,0,0,1,29,9.53V20.47A8.25,8.25,0,0,1,20.76,28.71ZM9.81,3.87A5.66,5.66,0,0,0,4.16,9.53V20.47a5.66,5.66,0,0,0,5.65,5.66h11a5.67,5.67,0,0,0,5.66-5.66V9.53a5.67,5.67,0,0,0-5.66-5.66Z" transform="translate(-1.58 -1.29)"/></svg>