<svg id="Layer_1" data-name="Layer 1" xmlns="http://www.w3.org/2000/svg" viewBox="0 0 30 24.69"><defs><style>.cls-1{fill:#3700b3;}</style></defs><path class="cls-1" d="M29.88,6.21a12.43,12.43,0,0,1-3,.87c.49-.08,1.21-1,1.49-1.32a5.53,5.53,0,0,0,1-1.84s.05-.12,0-.16a.18.18,0,0,0-.16,0,15.29,15.29,0,0,1-3.59,1.37.24.24,0,0,1-.25-.06A2.42,2.42,0,0,0,25,4.77,6.14,6.14,0,0,0,23.27,3.7a5.94,5.94,0,0,0-2.67-.43A6.32,6.32,0,0,0,18.06,4a6.57,6.57,0,0,0-2,1.67A6.35,6.35,0,0,0,14.8,8.1a6.59,6.59,0,0,0-.07,2.58c0,.15,0,.17-.12.15-4.94-.74-9-2.51-12.36-6.29-.15-.17-.22-.17-.34,0C.45,6.73,1.16,10.23,3,12a9.83,9.83,0,0,0,.76.67A6.28,6.28,0,0,1,1.35,12c-.14-.09-.22,0-.23.13a4.41,4.41,0,0,0,0,.71,6.34,6.34,0,0,0,3.91,5.05,3.61,3.61,0,0,0,.79.24,6.87,6.87,0,0,1-2.34.07c-.17,0-.24.06-.17.22a6.59,6.59,0,0,0,4.91,4.12c.23,0,.45,0,.67.09,0,0,0,0,0,0-.55.84-2.46,1.46-3.35,1.78a12.12,12.12,0,0,1-5.1.65c-.28,0-.33,0-.41,0s0,.11.08.18c.35.23.7.43,1.06.63a16.18,16.18,0,0,0,3.41,1.36c6.12,1.7,13,.45,17.62-4.12,3.61-3.58,4.88-8.53,4.88-13.49,0-.19.23-.3.36-.4a11.81,11.81,0,0,0,2.4-2.49A.74.74,0,0,0,30,6.24v0C30,6.13,30,6.16,29.88,6.21Z" transform="translate(0 -3.25)"/></svg>